<svg width="22" height="22" viewBox="0 0 22 22" fill="none" xmlns="http://www.w3.org/2000/svg">
<path d="M7.49751 17.2993C7.49751 17.3847 7.39938 17.4529 7.27567 17.4529C7.13489 17.4657 7.03676 17.3975 7.03676 17.2993C7.03676 17.2139 7.13489 17.1457 7.2586 17.1457C7.38659 17.1328 7.49751 17.2011 7.49751 17.2993ZM6.17074 17.1072C6.14088 17.1926 6.2262 17.2908 6.35418 17.3164C6.4651 17.359 6.59309 17.3164 6.61868 17.231C6.64428 17.1457 6.56322 17.0475 6.43524 17.0091C6.32432 16.9792 6.2006 17.0219 6.17074 17.1072ZM8.05637 17.0347C7.93265 17.0646 7.84733 17.1457 7.86013 17.2438C7.87293 17.3292 7.98385 17.3847 8.11183 17.3548C8.23555 17.3249 8.32087 17.2438 8.30807 17.1585C8.29527 17.0774 8.18009 17.0219 8.05637 17.0347ZM10.8635 0.68C4.94636 0.68 0.419998 5.17412 0.419998 11.0937C0.419998 15.8269 3.39776 19.8771 7.65109 21.3026C8.19715 21.4008 8.38913 21.0636 8.38913 20.7862C8.38913 20.5216 8.37633 19.062 8.37633 18.1657C8.37633 18.1657 5.39004 18.8059 4.76292 16.8938C4.76292 16.8938 4.27658 15.6519 3.57693 15.3318C3.57693 15.3318 2.59999 14.6617 3.64519 14.6745C3.64519 14.6745 4.70746 14.7599 5.29192 15.7756C6.2262 17.4231 7.79187 16.9493 8.40193 16.6676C8.50005 15.9848 8.77735 15.511 9.08451 15.2294C6.69974 14.9647 4.29364 14.619 4.29364 10.5133C4.29364 9.33962 4.61787 8.75064 5.30045 7.99949C5.18953 7.72208 4.82691 6.57827 5.41137 5.10157C6.30299 4.82415 8.355 6.25391 8.355 6.25391C9.20822 6.01491 10.1254 5.89114 11.0341 5.89114C11.9428 5.89114 12.86 6.01491 13.7133 6.25391C13.7133 6.25391 15.7653 4.81989 16.6569 5.10157C17.2413 6.58254 16.8787 7.72208 16.7678 7.99949C17.4504 8.75491 17.8685 9.34389 17.8685 10.5133C17.8685 14.6318 15.3557 14.9605 12.971 15.2294C13.3634 15.5665 13.6962 16.2067 13.6962 17.2097C13.6962 18.648 13.6834 20.4277 13.6834 20.7777C13.6834 21.0551 13.8796 21.3922 14.4214 21.2941C18.6876 19.8771 21.58 15.8269 21.58 11.0937C21.58 5.17412 16.7806 0.68 10.8635 0.68ZM4.56668 15.4001C4.51122 15.4427 4.52401 15.5409 4.59654 15.622C4.6648 15.6903 4.76292 15.7202 4.81838 15.6647C4.87384 15.622 4.86104 15.5238 4.78851 15.4427C4.72026 15.3745 4.62214 15.3446 4.56668 15.4001ZM4.10593 15.0544C4.07607 15.1099 4.11873 15.1781 4.20405 15.2208C4.27231 15.2635 4.35764 15.2507 4.3875 15.1909C4.41736 15.1355 4.3747 15.0672 4.28938 15.0245C4.20405 14.9989 4.1358 15.0117 4.10593 15.0544ZM5.48816 16.5738C5.4199 16.6292 5.4455 16.7573 5.54362 16.8384C5.64174 16.9365 5.76546 16.9493 5.82092 16.881C5.87638 16.8256 5.85078 16.6975 5.76546 16.6164C5.6716 16.5183 5.54362 16.5055 5.48816 16.5738ZM5.00182 15.9464C4.93356 15.989 4.93356 16.1 5.00182 16.1982C5.07008 16.2963 5.18526 16.339 5.24072 16.2963C5.30898 16.2409 5.30898 16.1299 5.24072 16.0317C5.181 15.9336 5.07008 15.8909 5.00182 15.9464Z" fill="#F7F7F7"/>
</svg>
