<svg width="21" height="10" viewBox="0 0 21 10" fill="none" xmlns="http://www.w3.org/2000/svg">
<path d="M11.1141 9.95216C11.3785 9.90584 11.8545 9.81321 11.8545 9.25745C11.8545 9.25745 11.8016 7.86804 12.5421 7.68278C13.2825 7.49753 14.2345 9.02588 15.2394 9.62796C15.9798 10.0448 16.5616 9.99847 16.5616 9.99847L19.2589 9.95216C19.2589 9.95216 20.634 9.85953 19.9993 8.88694C19.9464 8.79431 19.5233 8.19223 17.9367 6.94176C16.2972 5.55235 16.5616 5.78392 18.5185 3.42192C19.7349 1.98619 20.2638 1.10623 20.1051 0.782036C19.8936 0.45784 19.0473 0.504154 19.0473 0.504154H16.0327C15.7154 0.504154 15.5567 0.550467 15.3981 0.782036C15.3981 0.782036 14.9221 1.93988 14.2874 2.86615C12.9652 4.85764 12.4363 4.95027 12.1719 4.81133C11.6959 4.57976 11.8016 3.6998 11.8016 3.09772C11.8016 1.0136 12.1719 0.272585 11.1141 0.08733C10.4266 -0.00529746 7.99369 -0.0979249 7.25326 0.226271C6.88304 0.411526 6.67149 0.735722 6.83015 0.782036C6.98882 0.782036 7.46481 0.82835 7.72925 1.10623C8.15236 1.70831 8.20525 4.57976 7.62348 4.85764C6.83015 5.3671 4.8204 1.98619 4.3444 0.874663C4.23863 0.596781 4.07996 0.550467 3.70974 0.45784H0.800889C0.483559 0.45784 0.00756477 0.504154 0.219118 1.05992C1.6471 3.65349 4.60884 9.99847 9.95056 9.95216H11.1141Z" fill="white"/>
</svg>
