<svg width="22" height="10" viewBox="0 0 22 10" fill="none" xmlns="http://www.w3.org/2000/svg">
<path d="M20.8949 1.54411C20.7732 1.24696 20.541 0.976223 20.2209 0.758074C19.9007 0.539925 19.5034 0.381741 19.0672 0.29881C17.4304 8.56725e-06 10.8427 8.46041e-06 10.8427 8.46041e-06C10.8427 8.46041e-06 4.27162 -0.00595552 2.61813 0.29881C2.18201 0.381741 1.78466 0.539925 1.4645 0.758074C1.14433 0.976223 0.912167 1.24696 0.790452 1.54411C0.480168 2.68594 0.327196 3.84504 0.333533 5.00627C0.328394 6.16312 0.481361 7.31778 0.790452 8.4553C0.912167 8.75245 1.14433 9.02319 1.4645 9.24134C1.78466 9.45949 2.18201 9.61767 2.61813 9.7006C4.25324 10 10.8427 10 10.8427 10C10.8427 10 17.4129 10 19.0672 9.7006C19.5034 9.61767 19.9007 9.45949 20.2209 9.24134C20.541 9.02319 20.7732 8.75245 20.8949 8.4553C21.1976 7.31737 21.3441 6.16271 21.3326 5.00627C21.3453 3.84545 21.1987 2.68636 20.8949 1.54411V1.54411ZM8.74016 7.14797V2.858L14.2232 5.00627L8.74016 7.14797Z" fill="white"/>
</svg>
